<svg width="24" height="24" viewBox="0 0 24 24" fill="none" xmlns="http://www.w3.org/2000/svg">
<g id="Checklist">
<path id="Vector" d="M15.3334 1.7998H9.27231C8.74074 1.7998 8.30082 2.23846 8.30082 2.78215V3.30113H6.63891C5.62465 3.30113 4.7998 4.12902 4.7998 5.14844V20.9525C4.7998 21.9719 5.62465 22.7998 6.63891 22.7998H17.9607C18.975 22.7998 19.7998 21.9719 19.7998 20.9525V5.15462C19.7998 4.1352 18.975 3.30731 17.9607 3.30731H16.2988V2.78833C16.3049 2.24464 15.8711 1.7998 15.3334 1.7998ZM9.27231 2.80069H15.3151L15.3212 3.30113H15.3151L15.3334 4.96927L9.29064 4.9878V3.29495H9.27231V2.80069ZM17.9668 4.30201C18.4373 4.30201 18.8161 4.68507 18.8161 5.15462V20.9525C18.8161 21.422 18.4373 21.8051 17.9668 21.8051H6.63891C6.16844 21.8051 5.78962 21.422 5.78962 20.9525V5.15462C5.78962 4.68507 6.16844 4.30201 6.63891 4.30201H8.30082V4.99398C8.30082 5.53767 8.73463 5.97633 9.27231 5.97633H15.3334C15.865 5.97633 16.3049 5.53767 16.3049 4.99398V4.30201H17.9668Z" fill="url(#paint0_linear_332_3899)"/>
<path id="Vector_2" d="M17.0322 14.1427H16.1825C15.6456 14.1427 15.209 14.6165 15.209 15.1991V16.1147C15.209 16.6974 15.6456 17.1712 16.1825 17.1712H17.0263C17.5632 17.1712 17.9998 16.6974 17.9998 16.1147V15.1991C18.0057 14.6165 17.5691 14.1427 17.0322 14.1427ZM17.0499 15.6601V15.2055V15.6601ZM16.1648 16.1147L16.1766 15.404L16.1825 15.1799L17.044 15.1991V16.1147C17.044 16.1275 17.0381 16.1339 17.0263 16.1339L16.1648 16.1147ZM16.1825 15.1799H16.2415H16.1825ZM16.1707 15.8842L16.1648 16.1147L16.1707 15.8842ZM17.0322 17.9716H16.1825C15.6456 17.9716 15.209 18.4454 15.209 19.028V19.9436C15.209 20.5263 15.6456 21.0001 16.1825 21.0001H17.0263C17.5632 21.0001 17.9998 20.5263 17.9998 19.9436V19.028C18.0057 18.4454 17.5691 17.9716 17.0322 17.9716ZM17.0499 19.489V19.0344V19.489ZM16.1648 19.9436L16.1825 19.2329L16.1884 19.0088L17.0499 19.028V19.9436C17.0499 19.9564 17.044 19.9628 17.0322 19.9628L16.1648 19.9436ZM16.1825 19.0088H16.2415H16.1825ZM16.1707 19.7131L16.1648 19.9436L16.1707 19.7131ZM8.83653 8.77066H14.1469C14.3888 8.77066 14.5835 8.55937 14.5835 8.29685V8.13678C14.5835 7.87426 14.3888 7.66297 14.1469 7.66297H8.83653C8.59461 7.66297 8.3999 7.87426 8.3999 8.13678V8.29685C8.3999 8.55937 8.59461 8.77066 8.83653 8.77066ZM15.7931 6.6001C15.7931 6.6001 15.7931 6.6065 15.7931 6.6001C15.799 6.6001 15.799 6.6001 15.799 6.6001C15.7931 6.6065 15.7931 6.6001 15.7931 6.6001Z" fill="url(#paint1_linear_332_3899)"/>
<path id="Vector_3" d="M16.3411 6.91383C16.3411 6.91383 16.3411 6.90765 16.3351 6.90765C16.329 6.90148 16.3351 6.90148 16.329 6.8953C16.3229 6.88913 16.3168 6.88913 16.3168 6.88295C16.3107 6.87678 16.3046 6.8706 16.2985 6.86443C16.3046 6.8706 16.3107 6.87678 16.3168 6.87678C16.3046 6.86443 16.2864 6.85208 16.2681 6.83973C16.2559 6.83356 16.2559 6.82738 16.2438 6.82121C16.2377 6.82121 16.2316 6.82121 16.2255 6.81503C16.189 6.79651 16.1403 6.78416 16.0856 6.78416C16.0065 6.77799 15.9152 6.79034 15.7874 6.83973C15.7813 6.83973 15.7813 6.84591 15.7752 6.85208C15.7265 6.87678 15.6839 6.90148 15.6474 6.93235C15.6353 6.9447 15.6292 6.95705 15.6231 6.96322C15.5987 6.99409 15.5744 7.01879 15.5622 7.04966C15.5622 7.05584 15.5561 7.05584 15.5501 7.06201C15.544 7.07436 15.5501 7.08054 15.544 7.09289C15.5318 7.12993 15.5257 7.16698 15.5257 7.20403C15.5257 7.21638 15.5257 7.22872 15.5257 7.24725C15.5257 7.29664 15.5318 7.33987 15.544 7.38309C15.5501 7.39544 15.5501 7.40779 15.5561 7.42013C15.5622 7.44483 15.5683 7.46953 15.5744 7.48805C15.5866 7.5251 15.5987 7.5498 15.5987 7.55597L16.6758 8.90201C16.7184 8.95141 16.7671 8.98846 16.828 9.01315C16.8462 9.01933 16.8645 9.01933 16.8827 9.0255C16.9132 9.03168 16.9497 9.0502 16.9862 9.0502C16.9983 9.0502 17.0105 9.0502 17.0166 9.0502C17.0531 9.0502 17.0835 9.03168 17.114 9.01933C17.1383 9.00698 17.1687 9.00698 17.1931 8.99463C17.2478 8.95758 17.2965 8.91436 17.333 8.85262L18.5379 6.77181C18.5379 6.77181 18.544 6.73476 18.5562 6.70389C18.5562 6.69772 18.5562 6.69772 18.5623 6.68537C18.5623 6.67302 18.5623 6.6545 18.5623 6.64215C18.5744 6.53718 18.5805 6.38282 18.5014 6.24698C18.4588 6.17289 18.3858 6.09879 18.2823 6.0494C18.2762 6.0494 18.2702 6.0494 18.2641 6.04322C18.2093 6.01852 18.1545 6.00617 18.1119 6C18.0937 6 18.0815 6 18.0693 6C18.0268 6 17.9842 6.00617 17.9476 6.01852C17.9416 6.01852 17.9355 6.01852 17.9233 6.0247C17.9172 6.0247 17.9172 6.03087 17.9111 6.03087C17.8746 6.04322 17.8442 6.06792 17.8199 6.08644C17.8077 6.09262 17.8016 6.10497 17.7955 6.11114C17.7773 6.12966 17.7651 6.14201 17.7529 6.16054C17.7407 6.17289 17.7347 6.17906 17.7286 6.19141C17.7225 6.20376 17.7164 6.20993 17.7103 6.22228C17.6981 6.24698 17.686 6.2655 17.686 6.2655L17.0714 7.33369L16.9132 7.61154L16.3655 6.92617C16.3533 6.93235 16.3472 6.92 16.3411 6.91383ZM15.544 7.09289C15.544 7.08671 15.544 7.07436 15.5501 7.06819C15.5501 7.06201 15.5561 7.06201 15.5561 7.05584C15.5501 7.06819 15.5501 7.08054 15.544 7.09289ZM17.9111 6.03087C17.9172 6.03087 17.9233 6.03087 17.9233 6.03087C17.9172 6.03087 17.9111 6.03705 17.905 6.03705C17.905 6.03087 17.9111 6.03087 17.9111 6.03087ZM17.0044 9.05638C16.9923 9.05638 16.9862 9.05638 16.974 9.05638C16.9436 9.05638 16.9192 9.04403 16.8888 9.03785C16.9314 9.04403 16.9679 9.05638 17.0044 9.05638ZM16.901 7.61154L16.8523 7.5498L16.901 7.61154ZM14.4121 11.5262H8.9354C8.68591 11.5262 8.4851 11.7299 8.4851 11.9831V12.1374C8.4851 12.3906 8.68591 12.5944 8.9354 12.5944H14.4121C14.6616 12.5944 14.8624 12.3906 14.8624 12.1374V11.9831C14.8624 11.7299 14.6616 11.5262 14.4121 11.5262ZM14.4121 15.0642H8.9354C8.68591 15.0642 8.4851 15.2679 8.4851 15.5211V15.6754C8.4851 15.9286 8.68591 16.1323 8.9354 16.1323H14.4121C14.6616 16.1323 14.8624 15.9286 14.8624 15.6754V15.5211C14.8624 15.2741 14.6616 15.0642 14.4121 15.0642ZM14.3269 18.7318H8.85021C8.60072 18.7318 8.3999 18.9356 8.3999 19.1887V19.3431C8.3999 19.5962 8.60072 19.8 8.85021 19.8H14.3269C14.5764 19.8 14.7772 19.5962 14.7772 19.3431V19.1887C14.7772 18.9356 14.5764 18.7318 14.3269 18.7318ZM16.1099 10.5012H16.116C16.1099 10.5012 16.1099 10.5012 16.1099 10.5012ZM18.3006 9.77262C18.2945 9.77262 18.2884 9.77262 18.2823 9.76644C18.2276 9.74174 18.1728 9.7294 18.1302 9.72322C18.1119 9.72322 18.0998 9.72322 18.0876 9.72322C18.045 9.72322 18.0024 9.7294 17.9659 9.74175C17.9598 9.74175 17.9537 9.74174 17.9416 9.74792C17.9355 9.74792 17.9355 9.75409 17.9294 9.75409C17.8929 9.77262 17.8624 9.79114 17.8381 9.80966C17.8259 9.81584 17.8199 9.82819 17.8138 9.83436C17.7955 9.85289 17.7833 9.86523 17.7712 9.88376C17.7651 9.89611 17.7529 9.90228 17.7468 9.91463C17.7407 9.92698 17.7347 9.93315 17.7286 9.9455C17.7164 9.9702 17.7042 9.98873 17.7042 9.98873L17.0896 11.0507L16.9314 11.3286L16.3837 10.6432C16.3837 10.6432 16.3777 10.6309 16.3716 10.6247C16.3716 10.6185 16.3655 10.6185 16.3655 10.6123C16.3594 10.6062 16.3655 10.6062 16.3594 10.6C16.3533 10.5938 16.3472 10.5938 16.3472 10.5877C16.3411 10.5815 16.3351 10.5753 16.329 10.5691C16.3351 10.5753 16.3411 10.5815 16.3472 10.5815C16.3351 10.5691 16.3168 10.5568 16.2985 10.5444C16.2864 10.5383 16.2864 10.5321 16.2742 10.5259C16.2681 10.5259 16.262 10.5259 16.2559 10.5197C16.2194 10.5012 16.1708 10.495 16.116 10.4889C16.0369 10.4827 15.9456 10.495 15.8178 10.5444C15.8117 10.5444 15.8117 10.5506 15.8056 10.5506C15.757 10.5753 15.7144 10.6 15.6778 10.6309C15.6657 10.6432 15.6596 10.6556 15.6535 10.6617C15.6292 10.6926 15.6048 10.7173 15.5927 10.7482C15.5927 10.7544 15.5866 10.7544 15.5805 10.7605C15.5744 10.7729 15.5805 10.7791 15.5744 10.7914C15.5622 10.8285 15.5561 10.8655 15.5561 10.9025C15.5561 10.9149 15.5561 10.9272 15.5561 10.9458C15.5561 10.9952 15.5622 11.0384 15.5744 11.0816C15.5805 11.094 15.5805 11.1063 15.5866 11.1187C15.5927 11.1434 15.5987 11.1681 15.6048 11.1866C15.617 11.2236 15.6292 11.2483 15.6292 11.2545L16.7063 12.6005C16.7489 12.6499 16.7975 12.687 16.8584 12.7117C16.8766 12.7179 16.8949 12.7179 16.9132 12.724C16.9436 12.7302 16.9801 12.7487 17.0166 12.7487C17.0288 12.7487 17.0409 12.7487 17.047 12.7487C17.0835 12.7487 17.114 12.7302 17.1444 12.7179C17.1687 12.7117 17.1992 12.7055 17.2235 12.6932C17.2783 12.6561 17.3269 12.6129 17.3635 12.5511L18.5683 10.4703C18.5683 10.4703 18.5744 10.4333 18.5866 10.4024C18.5866 10.3962 18.5866 10.3962 18.5927 10.3839C18.5927 10.3715 18.5927 10.353 18.5927 10.3407C18.6048 10.2357 18.6109 10.0813 18.5318 9.9455C18.471 9.89611 18.404 9.82201 18.3006 9.77262ZM15.5744 10.8099C15.5744 10.8038 15.5744 10.7914 15.5805 10.7852C15.5805 10.7791 15.5866 10.7791 15.5866 10.7729C15.5805 10.7852 15.5805 10.7976 15.5744 10.8099ZM16.8827 11.2668L16.9314 11.3286L16.8827 11.2668ZM17.0105 12.7734C16.9801 12.7734 16.9557 12.7611 16.9253 12.7549C16.9618 12.7611 17.0044 12.7734 17.0409 12.7734C17.0288 12.7734 17.0166 12.7734 17.0105 12.7734ZM17.9355 9.74792L17.9416 9.74175C17.9476 9.74175 17.9537 9.74175 17.9537 9.74175C17.9476 9.74792 17.9416 9.74792 17.9355 9.74792Z" fill="url(#paint2_linear_332_3899)"/>
</g>
<defs>
<linearGradient id="paint0_linear_332_3899" x1="2.97155" y1="1.79981" x2="23.4031" y2="4.97812" gradientUnits="userSpaceOnUse">
<stop offset="0.0520833" stop-color="#F736C7"/>
<stop offset="0.28125" stop-color="#C539C4"/>
<stop offset="0.510417" stop-color="#903ABB"/>
<stop offset="0.75" stop-color="#5938AD"/>
<stop offset="1" stop-color="#003399"/>
</linearGradient>
<linearGradient id="paint1_linear_332_3899" x1="7.22982" y1="6.6001" x2="20.346" y2="8.50441" gradientUnits="userSpaceOnUse">
<stop offset="0.0520833" stop-color="#F736C7"/>
<stop offset="0.28125" stop-color="#C539C4"/>
<stop offset="0.510417" stop-color="#903ABB"/>
<stop offset="0.75" stop-color="#5938AD"/>
<stop offset="1" stop-color="#003399"/>
</linearGradient>
<linearGradient id="paint2_linear_332_3899" x1="7.15669" y1="6" x2="21.027" y2="8.2327" gradientUnits="userSpaceOnUse">
<stop offset="0.0520833" stop-color="#F736C7"/>
<stop offset="0.28125" stop-color="#C539C4"/>
<stop offset="0.510417" stop-color="#903ABB"/>
<stop offset="0.75" stop-color="#5938AD"/>
<stop offset="1" stop-color="#003399"/>
</linearGradient>
</defs>
</svg>
