<svg width="24" height="24" viewBox="0 0 24 24" fill="none" xmlns="http://www.w3.org/2000/svg">
<g id="Electrical Plug">
<path id="Layer 2" d="M1.42 22.71L3.82 20.31C4.5449 20.7337 5.38996 20.9046 6.22252 20.796C7.05509 20.6874 7.82802 20.3055 8.42 19.71L11.12 17L10.12 16L12.41 13.71L11 12.3L8.71 14.59L8.12 14L10.41 11.71L9 10.3L6.71 12.59L5.71 11.59L3 14.29C2.40909 14.8847 2.03021 15.6572 1.92179 16.4885C1.81336 17.3198 1.9814 18.1637 2.4 18.89L0 21.29L1.42 22.71ZM4.42 15.71L5.71 14.41L8.3 17L7 18.29C6.65654 18.6335 6.19072 18.8264 5.705 18.8264C5.21928 18.8264 4.75346 18.6335 4.41 18.29C4.06654 17.9466 3.87359 17.4808 3.87359 16.995C3.87359 16.5093 4.06654 16.0435 4.41 15.7L4.42 15.71ZM17.6 3.69004C16.8737 3.27144 16.0298 3.1034 15.1985 3.21182C14.3672 3.32025 13.5947 3.69913 13 4.29004L10.3 7.00004L15.71 12.41L18.42 9.70004C19.0109 9.10537 19.3898 8.33284 19.4982 7.50155C19.6066 6.67026 19.4386 5.82638 19.02 5.10004L21.42 2.70004L20 1.29004L17.6 3.69004ZM17 8.29004L15.71 9.59004L13.12 7.00004L14.41 5.71004C14.7535 5.36658 15.2193 5.17363 15.705 5.17363C16.1907 5.17363 16.6565 5.36658 17 5.71004C17.3435 6.05349 17.5364 6.51932 17.5364 7.00504C17.5364 7.49076 17.3435 7.95658 17 8.30004V8.29004Z" fill="url(#paint0_linear_332_3871)"/>
</g>
<defs>
<linearGradient id="paint0_linear_332_3871" x1="-2.61075" y1="1.29005" x2="25.9185" y2="7.5032" gradientUnits="userSpaceOnUse">
<stop offset="0.0520833" stop-color="#F736C7"/>
<stop offset="0.28125" stop-color="#C539C4"/>
<stop offset="0.510417" stop-color="#903ABB"/>
<stop offset="0.75" stop-color="#5938AD"/>
<stop offset="1" stop-color="#003399"/>
</linearGradient>
</defs>
</svg>
