<svg width="94" height="29" viewBox="0 0 94 29" fill="none" xmlns="http://www.w3.org/2000/svg">
<g id="Circle / 2">
<path id="Oval" fill-rule="evenodd" clip-rule="evenodd" d="M39.1702 0.253589C39.0357 0.399919 38.9264 0.415518 38.7972 0.306476C38.5449 0.0934431 37.4261 0.654697 37.2471 1.08403C37.145 1.32871 37.1333 1.26661 37.2005 0.837869L37.2905 0.264434L36.6503 0.378527C35.714 0.545506 35.4425 0.563482 35.2815 0.469147C35.0738 0.347478 34.1403 0.448646 33.9421 0.614289C33.8317 0.706692 33.7516 0.68931 33.7094 0.563333C33.6577 0.409278 33.55 0.40705 33.1642 0.551746C32.8365 0.674603 32.5978 0.685299 32.4141 0.585468C32.2087 0.473604 32.0744 0.510446 31.8478 0.74086C31.6007 0.992072 31.4463 1.0249 30.9312 0.936363C30.5905 0.877682 30.246 0.851982 30.1656 0.879168C30.0853 0.906205 29.6579 0.94899 29.2159 0.974097C27.9386 1.04674 27.9009 1.05239 27.9009 1.17198C27.9009 1.23452 27.6937 1.25458 27.4404 1.21684C27.0287 1.15534 26.9885 1.18178 27.0614 1.46538C27.1162 1.67841 27.0754 1.7827 26.9375 1.7827C26.8245 1.7827 26.732 1.68242 26.732 1.55986C26.732 1.4113 26.5859 1.33702 26.2937 1.33702C26.0405 1.33702 25.8554 1.41546 25.8554 1.52272C25.8552 1.63741 25.6291 1.716 25.2635 1.72833C24.5901 1.75091 24.3769 1.88387 24.6907 2.08561C24.8363 2.1792 24.8468 2.22451 24.723 2.22615C24.6227 2.22733 24.5404 2.32865 24.5404 2.45121C24.5404 2.57377 24.4418 2.67405 24.3212 2.67405C24.2007 2.67405 24.1021 2.57377 24.1021 2.45121C24.1021 2.32865 24.1678 2.22837 24.2482 2.22837C24.3285 2.22837 24.3943 2.16152 24.3943 2.07982C24.3943 1.85579 23.9985 1.90155 23.9101 2.13567C23.863 2.26017 23.6963 2.31365 23.484 2.27235C23.1617 2.2098 23.1398 2.24427 23.1952 2.72634C23.2521 3.22238 23.6138 3.56971 23.7982 3.30542C23.8448 3.23872 24.0638 3.17231 24.2847 3.15805C24.5056 3.14379 24.7688 3.12448 24.8691 3.11512C24.9697 3.10576 25.1996 3.14424 25.3805 3.20054C25.626 3.27705 25.7093 3.24303 25.7093 3.06639C25.7093 2.87401 25.779 2.85692 26.0841 2.97488C26.648 3.19282 27.1704 3.15538 27.1704 2.89689C27.1704 2.75828 27.3083 2.67405 27.5357 2.67405C27.7491 2.67405 27.9009 2.75947 27.9009 2.87936C27.9009 3.16073 29.0568 3.17855 29.1623 2.89882C29.2044 2.7874 29.4145 2.69975 29.6291 2.70391C30.3727 2.71847 30.5309 2.67301 30.5309 2.44468C30.5309 2.31855 30.6132 2.22615 30.7135 2.23952C30.8141 2.25274 31.0464 2.25571 31.23 2.2459C31.516 2.2309 31.5417 2.18618 31.4093 1.93467C31.2832 1.6949 31.2956 1.65687 31.4773 1.72758C31.5997 1.77542 31.6998 1.90764 31.6998 2.02143C31.6998 2.13523 31.7914 2.22837 31.9033 2.22837C32.0152 2.22837 32.1442 2.32761 32.1901 2.44883C32.3123 2.77269 34.0744 2.68668 34.4757 2.33727C34.7845 2.06853 35.136 1.9837 34.9976 2.21144C34.9537 2.28379 35.0828 2.375 35.2847 2.41437C35.4865 2.45359 35.6876 2.4267 35.7314 2.35465C35.7752 2.28245 35.8722 2.26195 35.9471 2.30904C36.0219 2.35599 36.0831 2.3236 36.0831 2.23714C36.0831 2.15068 36.2185 2.07982 36.3839 2.07982C36.5493 2.07982 36.6441 2.14667 36.5945 2.22837C36.5389 2.31974 36.7464 2.36832 37.1338 2.35465C37.5537 2.33979 37.6323 2.31201 37.3696 2.27131C37.0889 2.22778 37.0004 2.14518 37.0611 1.984C37.108 1.85965 37.1866 1.8136 37.2357 1.88164C37.374 2.07343 37.9552 2.37693 38.1844 2.37693C38.2975 2.37693 38.6929 2.0862 39.063 1.7307C39.5237 1.2883 39.7358 1.16113 39.7358 1.32737C39.7358 1.46077 39.5374 1.68926 39.2949 1.83484C38.7985 2.133 38.8405 2.37693 39.3878 2.37693C39.6214 2.37693 39.7164 2.31662 39.6514 2.20966C39.5785 2.08977 39.6235 2.08427 39.8096 2.19019C40.1385 2.37738 40.6125 2.25809 40.6125 1.98816C40.6125 1.87525 40.6782 1.7827 40.7586 1.7827C40.839 1.7827 40.9047 1.87183 40.9047 1.98073C40.9047 2.29151 42.6256 2.25601 42.7081 1.94359C42.7593 1.74972 42.7732 1.75403 42.7872 1.9684C42.8068 2.26789 43.1034 2.31038 43.3594 2.0501C43.4923 1.91492 43.5347 1.91417 43.5347 2.04698C43.5347 2.2413 46.1007 2.23283 46.4079 2.03763C46.5014 1.97805 46.6115 2.01341 46.6524 2.11606C46.7094 2.25853 46.7617 2.2517 46.8745 2.08695C46.9556 1.96825 46.99 1.81865 46.951 1.75432C46.912 1.69015 46.982 1.67737 47.1068 1.72595C47.2316 1.77468 47.3335 1.89323 47.3335 1.98964C47.3335 2.18113 47.6126 2.22481 48.7216 2.20698C49.1234 2.20045 49.9781 2.2104 50.621 2.22897C52.6689 2.28824 52.7953 2.28126 52.8528 2.10596C52.8919 1.98667 52.976 2.00182 53.1271 2.15543C53.4021 2.43502 54.3068 2.44081 54.9513 2.16702C55.3769 1.98622 55.4844 1.98622 55.7276 2.16702C56.0727 2.42373 56.3739 2.44735 56.1294 2.19866C55.8908 1.95607 55.909 1.7827 56.1732 1.7827C56.2937 1.7827 56.3924 1.88298 56.3924 2.00554C56.3924 2.1281 56.5075 2.23387 56.648 2.24041C56.7886 2.24709 57.101 2.26834 57.3421 2.28765C57.5831 2.30696 57.8288 2.2514 57.8878 2.1642C57.9595 2.05813 57.9958 2.06704 57.9974 2.19123C57.9985 2.29344 58.1474 2.37589 58.3283 2.3747C58.557 2.37307 58.5993 2.33519 58.4676 2.25006C58.3152 2.15187 58.3203 2.09215 58.4939 1.94567C58.6698 1.79726 58.739 1.81924 58.8683 2.06466C58.9632 2.24486 59.1147 2.33162 59.2456 2.28052C59.366 2.23357 59.5457 2.26299 59.6452 2.34588C59.9395 2.59115 60.4212 2.61433 60.6801 2.3958C60.8372 2.26343 60.9218 2.25036 60.9218 2.35881C60.9218 2.53574 61.3938 2.59011 61.5503 2.43116C61.7606 2.21738 62.8083 2.23135 62.9284 2.44958C63.0555 2.68059 63.6813 2.74447 64.6163 2.62191C64.9205 2.58194 65.3644 2.60616 65.6025 2.67553C65.8407 2.74506 66.0356 2.74803 66.0356 2.68222C66.0356 2.61641 66.2 2.56263 66.4009 2.56263C66.6018 2.56263 66.7662 2.64671 66.7662 2.74952C66.7662 2.9728 67.3164 3.14958 67.3827 2.94755C67.408 2.87015 67.6742 2.75056 67.9742 2.68177C68.4635 2.56961 68.5195 2.58744 68.5195 2.85484C68.5195 3.11854 68.5823 3.14082 69.0674 3.04871C69.3688 2.99152 69.5643 2.99687 69.5021 3.0606C69.3383 3.22847 70.3106 3.53688 70.5155 3.38208C70.6147 3.30706 70.7244 3.3185 70.7798 3.40956C70.8318 3.49528 71.1226 3.5654 71.4259 3.5654C71.7292 3.5654 72.0248 3.61353 72.0827 3.67236C72.2463 3.83875 73.6845 3.84216 73.889 3.67682C74.0202 3.5706 74.0716 3.59897 74.0716 3.77739C74.0716 3.97601 74.2106 4.02385 74.7657 4.01598C75.1473 4.01048 75.6806 4.04925 75.9508 4.10214C76.2683 4.16424 76.4801 4.13497 76.5504 4.01939C76.6338 3.88227 76.7067 3.88688 76.8631 4.039C77.1592 4.32735 77.8249 4.60204 77.9411 4.48393C78.1227 4.29913 78.7374 4.36509 78.8177 4.57812C78.88 4.74287 78.9415 4.74956 79.1078 4.60932C79.3185 4.43149 79.6865 4.53073 79.5639 4.73218C79.5071 4.82562 79.9196 4.84627 80.464 4.77704C80.5645 4.76426 80.6519 4.6368 80.6581 4.49389C80.6673 4.28606 80.6868 4.27863 80.7549 4.45675C80.8018 4.57931 80.9381 4.75297 81.0579 4.8427C81.1777 4.93243 81.2326 5.07668 81.18 5.16314C81.1209 5.26045 81.1906 5.29224 81.3631 5.24634C81.5164 5.20563 81.8808 5.28764 82.1729 5.42847C82.4651 5.56945 83.0301 5.68488 83.4287 5.68488C83.8271 5.68488 84.1532 5.74282 84.1532 5.81353C84.1532 5.88439 84.2519 5.94233 84.3724 5.94233C84.4929 5.94233 84.5916 5.86835 84.5916 5.77788C84.5916 5.68741 84.6902 5.6519 84.8107 5.69899C84.9313 5.74594 85.0299 5.71964 85.0299 5.64061C85.0299 5.40425 85.4298 5.47779 85.5256 5.73168C85.6567 6.07901 85.6472 6.09089 85.2387 6.09089C84.8816 6.09089 84.8755 6.10367 85.1173 6.34953C85.2986 6.53374 85.3889 6.55558 85.4317 6.42529C85.4725 6.30095 85.6455 6.36171 85.9722 6.61515C86.2761 6.85091 86.5458 6.95149 86.7058 6.88909C86.8555 6.83071 87.0104 6.87498 87.0854 6.99769C87.1549 7.11178 87.3291 7.20523 87.4724 7.20523C87.6157 7.20537 87.7411 7.28901 87.7512 7.39092C87.7613 7.49298 87.7776 7.63263 87.7877 7.70111C87.8387 8.04948 89.121 8.3264 89.121 7.98902C89.121 7.88919 89.2234 7.95619 89.3486 8.13787C89.4738 8.31971 89.5403 8.52754 89.4963 8.59974C89.3898 8.77504 89.6855 8.99847 90.1844 9.1197C90.4262 9.17852 90.7511 9.45484 90.988 9.80306C91.2067 10.1247 91.4666 10.3903 91.5655 10.3934C91.6645 10.3966 91.7903 10.5806 91.845 10.8027C91.8998 11.0247 92.0658 11.3384 92.2138 11.5C92.3966 11.6996 92.4488 11.8919 92.376 12.0993C92.317 12.2672 92.2832 12.668 92.3008 12.9898C92.3184 13.3117 92.2347 13.7271 92.1149 13.9131C91.9951 14.0991 91.8971 14.3537 91.8971 14.4792C91.8971 14.6046 91.8312 14.6905 91.7507 14.6701C91.6702 14.6496 91.5211 14.8001 91.4194 15.0044C91.3176 15.2087 91.0876 15.4417 90.9082 15.5224C90.7289 15.6031 90.5821 15.7836 90.5821 15.9235C90.5821 16.0636 90.4891 16.2315 90.3756 16.2968C90.2619 16.3622 90.1469 16.6162 90.1199 16.8614C90.0841 17.186 89.9908 17.3112 89.7764 17.3222C89.3903 17.3421 88.6997 17.7154 88.2477 18.1486C88.0487 18.3394 87.8687 18.4806 87.8475 18.4624C87.7394 18.3694 86.382 18.9896 86.0914 19.2649C85.9897 19.3612 85.9066 19.5194 85.9066 19.6164C85.9066 19.7174 85.7863 19.7609 85.6256 19.7181C85.4712 19.6771 85.1408 19.7695 84.8915 19.9237C84.6423 20.0778 84.3436 20.2039 84.2279 20.2039C84.112 20.2039 83.7741 20.4211 83.4767 20.6864C83.1796 20.9519 82.8156 21.1482 82.668 21.1228C82.4793 21.0902 82.3999 21.1681 82.3999 21.3859C82.3999 21.6467 82.3388 21.6796 82.0107 21.5958C81.6884 21.5136 81.6372 21.5387 81.7138 21.7415C81.7756 21.9054 81.73 21.9866 81.5761 21.9866C81.4315 21.9866 81.3771 21.9037 81.43 21.7638C81.4872 21.6123 81.4221 21.541 81.2265 21.541C81.0683 21.541 80.9388 21.5967 80.9388 21.6647C80.9388 21.7329 80.8567 21.7999 80.7562 21.8139C79.1503 22.0365 78.341 22.3509 78.2809 22.7755C78.2403 23.0638 78.2146 23.0726 78.0229 22.8628C77.8056 22.6253 77.7983 22.626 76.5308 23.0193C76.236 23.1108 75.7484 23.2177 75.4473 23.2568C75.1463 23.296 74.8243 23.392 74.7318 23.47C74.6394 23.548 74.1736 23.6557 73.6967 23.7093C73.2157 23.7634 72.5224 23.9733 72.1396 24.181C71.5853 24.4814 71.4073 24.5195 71.2357 24.3747C71.0795 24.2429 70.9434 24.2371 70.7301 24.3533C70.5695 24.4407 70.2138 24.5121 69.9395 24.5121C69.6654 24.5121 69.2372 24.6155 68.9879 24.7419C68.709 24.8835 67.9628 24.9998 67.0461 25.0447C66.2271 25.0848 65.4437 25.1794 65.3049 25.2551C65.1661 25.3305 64.5998 25.4032 64.0465 25.4165C63.4931 25.4299 62.7757 25.5302 62.4524 25.6395C62.1291 25.7487 61.4387 25.8502 60.9183 25.865C60.2558 25.8841 59.8692 25.9735 59.6288 26.1636C59.3306 26.3994 59.258 26.4071 59.076 26.222C58.9234 26.0669 58.7696 26.0463 58.5108 26.1463C58.3153 26.2219 57.9066 26.2785 57.6026 26.2721C57.2985 26.2657 56.9841 26.2749 56.9037 26.2926C56.8234 26.3104 56.5506 26.3135 56.2975 26.2997C56.0445 26.2859 55.794 26.3461 55.741 26.4333C55.688 26.5205 55.4922 26.5919 55.3057 26.5919C55.1194 26.5919 54.8867 26.6903 54.7885 26.8106C54.6414 26.991 54.5765 26.9951 54.4186 26.8347C54.1813 26.5933 52.5073 26.6534 52.1981 26.9145C52.0324 27.0542 51.9608 27.0502 51.8669 26.8954C51.7772 26.7479 51.3371 26.7045 50.1234 26.7236C48.3486 26.7513 47.7742 26.8904 47.7675 27.2939C47.7633 27.5381 47.7513 27.5371 47.6043 27.2798C47.4759 27.055 47.4209 27.0409 47.3164 27.2055C47.2152 27.3652 47.1698 27.3438 47.1053 27.1056C47.0495 26.8997 46.8853 26.7916 46.5939 26.769C46.3578 26.7507 46.1647 26.7949 46.1647 26.8672C46.1647 26.9396 45.9674 26.9752 45.7263 26.9467C45.4853 26.9182 45.288 26.9555 45.288 27.0296C45.288 27.2223 44.8403 27.2957 44.3992 27.1755C44.1153 27.0981 43.9793 27.1419 43.8501 27.3523C43.7556 27.506 43.5671 27.6318 43.4312 27.6318C43.239 27.6318 43.223 27.5922 43.3594 27.4536C43.7311 27.0756 43.5287 26.9635 42.5094 26.9822C41.9456 26.9924 41.45 26.9449 41.4083 26.8763C41.2973 26.6935 40.6366 27.0389 40.5631 27.3182C40.5125 27.5111 40.4969 27.5045 40.4833 27.2845C40.4681 27.0407 40.345 27.0156 39.334 27.0514C38.7113 27.0734 38.056 27.1437 37.878 27.2074C37.6875 27.2757 37.5163 27.2604 37.4615 27.1704C37.4103 27.0862 37.2682 27.0565 37.1456 27.1043C37.023 27.1521 36.8488 27.133 36.7585 27.0617C36.2847 26.6873 35.658 26.8192 35.4608 27.3347C35.3932 27.5118 35.3733 27.5036 35.3641 27.2952C35.3559 27.1094 35.2355 27.0346 34.9507 27.0391C34.7298 27.0424 34.3866 27.0268 34.1882 27.0042C33.7906 26.9592 33.5717 27.431 33.8958 27.6345C33.9943 27.6965 34.0298 27.8216 33.9746 27.9123C33.8296 28.1508 33.5992 28.1154 33.5992 27.8547C33.5992 27.7321 33.5311 27.6318 33.448 27.6318C33.3479 27.6318 33.3523 27.5262 33.4611 27.3194C33.6195 27.0184 33.5985 27.0091 32.8817 27.0594C32.3237 27.0988 32.138 27.0609 32.138 26.9081C32.1381 26.7436 32.0956 26.7399 31.9189 26.889C31.786 27.0012 31.6998 27.0131 31.6998 26.9192C31.6998 26.8286 31.3212 26.7637 30.7866 26.7626C30.2844 26.7616 29.1394 26.7384 28.2424 26.7112C27.3453 26.6842 26.6418 26.7123 26.6792 26.7738C26.7697 26.9226 26.306 26.7441 25.8776 26.4649C25.6288 26.303 25.4682 26.2837 25.2932 26.3946C25.1586 26.4801 24.9225 26.4964 24.7596 26.4318C24.3291 26.2608 23.2339 26.2734 22.5843 26.4569C22.1562 26.5777 21.9895 26.5734 21.9079 26.4394C21.8464 26.338 21.43 26.2525 20.9419 26.2409C20.231 26.2241 20.0278 26.2777 19.7553 26.5548C19.3463 26.9706 19.0648 26.9984 19.3102 26.5986C19.5171 26.2618 19.358 26.008 19.1026 26.2676C18.8509 26.5236 18.6278 26.4832 18.8421 26.2205C18.9422 26.098 18.9995 25.9943 18.9695 25.9901C18.9397 25.9861 18.4995 25.9456 17.9915 25.9001C17.1632 25.826 17.029 25.8535 16.6924 26.1675L16.317 26.5177L16.4135 26.1091C16.5185 25.664 16.5282 25.6692 15.5181 25.6257C15.1765 25.6109 14.8971 25.6599 14.8971 25.7346C14.8971 25.8093 14.7938 25.7654 14.6676 25.6369C14.5412 25.5085 14.3221 25.4035 14.1805 25.4035C14.0389 25.4035 13.8811 25.3607 13.8297 25.3085C13.7784 25.2562 13.4879 25.1965 13.1844 25.1759C11.7828 25.0799 10.8882 24.9401 10.7091 24.789C10.5644 24.6669 10.4529 24.6757 10.2789 24.8226C10.0799 24.9905 10.015 24.9807 9.85534 24.7586C9.71361 24.5616 9.64757 24.5445 9.59 24.6899C9.5298 24.8418 9.48582 24.844 9.38574 24.7005C9.31546 24.5999 9.10521 24.5475 8.91848 24.584C8.7316 24.6207 8.21116 24.5192 7.76173 24.3587C7.31244 24.1979 6.82721 24.1045 6.68373 24.1508C6.52374 24.2024 6.4219 24.1593 6.42058 24.0393C6.41883 23.8952 6.38011 23.9023 6.27331 24.0664C6.14926 24.2572 6.09169 24.242 5.87384 23.9617C5.73372 23.7817 5.24119 23.4883 4.77904 23.3097C4.31689 23.1313 3.93891 22.9411 3.93891 22.8872C3.93891 22.8333 3.70878 22.8163 3.42752 22.8498C2.95734 22.9056 2.91614 22.8789 2.91614 22.5191C2.91614 22.201 2.83213 22.1107 2.4667 22.0364C2.1495 21.9719 1.90579 21.7654 1.63826 21.3345C1.42976 20.9986 1.27474 20.7012 1.29373 20.6732C1.31287 20.6453 1.23324 20.545 1.1168 20.4504C1.00049 20.3558 0.864171 19.8946 0.813763 19.4259C0.733403 18.6763 0.757657 18.5512 1.01569 18.3874C1.17699 18.285 1.30893 18.0501 1.30893 17.8655C1.30893 17.681 1.37161 17.5299 1.44817 17.5299C1.52473 17.5299 1.69671 17.2959 1.8301 17.0099C1.9635 16.7239 2.16396 16.49 2.2753 16.49C2.38664 16.49 2.47781 16.4057 2.47781 16.3029C2.47781 16.2 2.60931 16.0323 2.77003 15.9302C2.93075 15.8281 3.06225 15.6193 3.06225 15.4661C3.06225 15.3071 3.19535 15.1522 3.37259 15.1051C3.62214 15.0387 3.66451 14.9482 3.58897 14.6421C3.49722 14.2707 3.68526 14.1132 3.86585 14.4102C3.91553 14.4919 4.01094 14.5587 4.078 14.5587C4.25962 14.5587 4.39389 14.1117 4.27175 13.914C4.2133 13.8192 4.18423 13.6247 4.20746 13.4817C4.23054 13.3388 4.17575 13.2217 4.0856 13.2217C3.99545 13.2217 3.96112 13.2866 4.00933 13.3659C4.05755 13.4453 3.93233 13.5521 3.73099 13.6035C3.52965 13.6549 3.32525 13.8239 3.27674 13.9792C3.22837 14.1346 3.12741 14.2616 3.05246 14.2616C2.9775 14.2616 2.91614 14.343 2.91614 14.4425C2.91614 14.5421 2.74124 14.7764 2.52763 14.9631C2.31387 15.1497 2.06695 15.4527 1.97899 15.6362C1.89103 15.8198 1.60699 16.0703 1.34794 16.1929C1.08845 16.3156 0.875568 16.5304 0.873815 16.6711C0.871769 16.8364 0.793308 16.8961 0.651435 16.8409C0.397204 16.7416 0.375288 16.9123 0.573705 17.4433C0.690885 17.7563 0.664877 17.849 0.423504 17.9803C0.263075 18.0677 0.172195 18.2054 0.22158 18.2866C0.270965 18.3677 0.227425 18.537 0.124855 18.6626C-0.0138029 18.8326 -0.0205239 18.9578 0.0988479 19.1523C0.19718 19.3121 0.208722 19.4947 0.128946 19.6229C-0.0487232 19.9083 -0.0406871 20.6496 0.140051 20.6496C0.220411 20.6496 0.291421 20.8335 0.297703 21.0581C0.303986 21.2828 0.342413 21.3832 0.382885 21.281C0.478587 21.0402 0.696729 21.0402 0.675982 21.281C0.648952 21.5944 1.20519 22.5809 1.40901 22.5809C1.51465 22.5809 1.60115 22.6749 1.60115 22.7897C1.60115 22.9209 1.70313 22.9716 1.87481 22.926C2.06213 22.8762 2.24944 22.9976 2.46919 23.3113C2.64554 23.5633 2.91702 23.7693 3.07218 23.7693C3.2275 23.7693 3.35447 23.8696 3.35447 23.9922C3.35447 24.1147 3.45309 24.215 3.57363 24.215C3.69417 24.215 3.7928 24.2875 3.7928 24.3759C3.7928 24.4644 3.87506 24.5062 3.97544 24.4687C4.07596 24.4313 4.14244 24.3279 4.1233 24.2389C4.10416 24.1499 4.18642 24.1153 4.30594 24.162C4.42545 24.2086 4.52335 24.3324 4.52335 24.4368C4.52335 24.6222 5.35807 25.1063 5.67776 25.1063C5.76616 25.1063 5.83834 25.1631 5.83834 25.2323C5.83834 25.3016 6.04216 25.3641 6.29142 25.3714C6.54054 25.3785 6.86154 25.4923 7.00473 25.6241C7.17948 25.7848 7.39075 25.8315 7.64747 25.7659C7.87189 25.7088 8.02998 25.7307 8.02998 25.8191C8.02998 25.902 8.16148 25.9349 8.3222 25.8922C8.65197 25.8044 8.70545 25.6141 8.43179 25.5018C8.33141 25.4607 8.39716 25.4216 8.5779 25.4152C8.76799 25.4084 8.90664 25.4913 8.90664 25.6117C8.90664 25.8598 9.72033 26.2136 10.1851 26.1675C10.3658 26.1497 10.5139 26.1972 10.5139 26.2733C10.5139 26.5031 10.9756 26.6086 11.1899 26.4278C11.3452 26.2966 11.3905 26.3101 11.3905 26.4876C11.3905 26.6609 11.6136 26.7372 12.3037 26.8002C12.806 26.8461 13.4042 26.8764 13.6333 26.8678C14.0085 26.8535 14.0417 26.8109 13.9683 26.4382C13.9111 26.1472 13.9536 25.9986 14.1118 25.9368C14.4531 25.8037 14.4981 25.8277 14.3992 26.09C14.3294 26.2751 14.3764 26.3125 14.6027 26.2523C14.9779 26.1526 14.9809 26.3164 14.6089 26.589C14.3434 26.7836 14.3392 26.821 14.5542 27.0627C14.719 27.2478 14.86 27.2858 15.033 27.1918C15.172 27.116 15.3666 27.114 15.4825 27.1868C15.5948 27.2573 15.7338 27.2857 15.791 27.2496C15.8485 27.2135 16.0817 27.2567 16.3094 27.3457C16.5372 27.4347 17.0523 27.5374 17.4541 27.5741C17.8559 27.6106 18.3079 27.6792 18.4586 27.7265C18.637 27.7823 18.6978 27.7548 18.6326 27.6477C18.4827 27.4011 18.7788 27.4497 18.9882 27.7061C19.2451 28.0209 19.4266 27.9826 19.4266 27.6137C19.4266 27.383 19.4756 27.3374 19.6092 27.4435C19.7097 27.5234 20.0056 27.6618 20.2667 27.7511C20.7123 27.9036 20.7415 27.8921 20.7415 27.5672C20.7415 27.3459 20.8469 27.1929 21.0333 27.1432C21.2629 27.0822 21.2982 27.1144 21.1992 27.2945C20.9785 27.6951 21.5085 28.061 22.3039 28.0575C22.6902 28.0557 23.286 28.1194 23.6281 28.1989C23.9912 28.2833 24.2835 28.2882 24.3307 28.2105C24.3752 28.1374 24.3418 28.0775 24.2568 28.0775C24.1718 28.0775 24.1021 28.0254 24.1021 27.9615C24.1021 27.778 24.9295 27.5091 25.1219 27.6301C25.2359 27.7017 25.1783 27.7727 24.9546 27.8367L24.6135 27.9342L24.946 28.2185C25.3683 28.5795 27.4305 28.6325 27.5614 28.2858C27.6658 28.009 27.9009 28.0191 27.9009 28.3004C27.9009 28.4373 28.0378 28.5232 28.2564 28.5232C28.5555 28.5232 28.61 28.4535 28.5996 28.0849C28.5907 27.7647 28.5082 27.6347 28.2931 27.6021C28.0365 27.5632 28.027 27.5339 28.2196 27.3728C28.4063 27.2163 28.4943 27.2946 28.7916 27.8826L29.1429 28.5773L29.2257 28.1417C29.2713 27.9021 29.2576 27.5589 29.1955 27.379C29.1078 27.1256 29.1303 27.0706 29.2953 27.1349C29.4123 27.1805 29.5092 27.2943 29.5103 27.3878C29.5116 27.4894 29.5638 27.4753 29.6402 27.3528C29.8196 27.0648 30.123 27.3003 30.0156 27.6443C29.9668 27.8009 29.9925 27.929 30.0729 27.929C30.1532 27.929 30.2607 28.0627 30.3117 28.2261C30.3627 28.3895 30.4986 28.5232 30.6138 28.5232C30.7289 28.5232 30.8231 28.59 30.8231 28.6717C30.8231 28.8698 31.3523 28.8609 31.728 28.6564C31.9593 28.5306 32.0582 28.5392 32.1545 28.6936C32.2518 28.8497 32.2803 28.8366 32.282 28.6346C32.2847 28.3247 32.6802 28.2934 33.0032 28.5774C33.1302 28.6888 33.4806 28.8184 33.7818 28.8652C34.2092 28.9314 34.3298 28.901 34.3298 28.7267C34.3298 28.5025 34.6848 28.5422 35.1987 28.8234C35.315 28.8872 35.5593 28.8817 35.7415 28.8111C35.9403 28.7343 36.1075 28.7402 36.1596 28.826C36.287 29.0356 37.2172 29.0004 37.2891 28.7832C37.3335 28.6492 37.4079 28.6411 37.5569 28.7543C37.6704 28.8408 38.141 28.9282 38.6027 28.9487C39.3451 28.9815 39.4831 28.9409 39.7968 28.5967L40.1515 28.2077L40.1993 28.5511C40.2443 28.8738 40.3048 28.8927 41.1969 28.8624C41.7193 28.8447 42.2124 28.8233 42.2928 28.8147C42.3731 28.8062 43.3366 28.8454 44.4338 28.9016C46.3055 28.9975 46.4332 28.9868 46.499 28.7264C46.5609 28.4814 46.5711 28.4794 46.586 28.7089C46.6011 28.9408 46.764 29.0347 47.0716 28.9886C47.2939 28.9552 51.5209 28.7885 51.8995 28.7982C52.1204 28.8038 52.3013 28.7459 52.3013 28.6694C52.3013 28.5853 52.4357 28.5825 52.6422 28.6624C52.8298 28.7349 53.0704 28.7393 53.1771 28.6723C53.2846 28.6047 53.4804 28.6199 53.6164 28.7064C53.7691 28.8032 54.078 28.8167 54.4332 28.742C54.7473 28.6759 55.0641 28.6365 55.137 28.6545C55.21 28.6726 55.3167 28.6101 55.3741 28.5158C55.4529 28.3861 55.5556 28.3859 55.7923 28.5147C55.965 28.6086 56.166 28.6478 56.2391 28.6019C56.3123 28.556 56.7838 28.4858 57.2871 28.4461C57.7903 28.4063 58.2446 28.3038 58.2966 28.2182C58.3486 28.1326 58.5166 28.065 58.6702 28.0682C59.0546 28.0757 59.4852 28.075 59.7894 28.0664C59.93 28.0624 60.0451 27.963 60.0451 27.8455C60.0451 27.728 60.1437 27.6318 60.2643 27.6318C60.3848 27.6318 60.4834 27.6987 60.4834 27.7804C60.4834 27.8621 60.578 27.929 60.6934 27.929C60.8429 27.929 60.9012 27.7553 60.8953 27.3276C60.8908 26.9968 60.9278 26.6848 60.9774 26.6343C61.0273 26.5838 61.0679 26.7175 61.0679 26.9315C61.0679 27.3662 61.3471 28.0775 61.5177 28.0775C61.7914 28.0775 62.0906 27.8798 62.0906 27.699C62.0906 27.3644 62.4165 27.2744 62.6172 27.5536C62.8424 27.8666 63.3335 27.745 63.2062 27.4078C63.1574 27.2783 63.2052 27.1862 63.3215 27.1862C63.4309 27.1862 63.5583 27.2864 63.6046 27.409C63.6508 27.5316 63.8387 27.6241 64.0221 27.6146C64.2694 27.6018 64.2894 27.5798 64.0996 27.5295C63.8028 27.4506 63.7531 27.1862 64.0352 27.1862C64.1404 27.1862 64.3539 27.2809 64.5096 27.3967C64.7095 27.5454 64.8467 27.5619 64.9759 27.4528C65.1047 27.3441 65.1589 27.3497 65.1589 27.4718C65.1589 27.587 65.3185 27.6149 65.6338 27.555C66.141 27.4586 66.3129 27.4289 67.7889 27.1829C68.3113 27.0957 68.8701 26.963 69.0309 26.8877C69.1916 26.8125 69.4874 26.758 69.6884 26.7666C70.2105 26.7892 71.198 26.591 71.3613 26.4309C71.4376 26.356 71.6247 26.2948 71.7771 26.2948C71.9294 26.2948 72.2286 26.17 72.4419 26.0173C72.7061 25.8283 72.9229 25.7777 73.1219 25.8584C73.5841 26.0457 73.7775 26.017 73.6862 25.7749C73.6329 25.6337 73.6881 25.552 73.8369 25.552C73.966 25.552 74.0716 25.6189 74.0716 25.7006C74.0716 25.7823 74.1703 25.8491 74.2908 25.8491C74.5497 25.8491 74.5522 25.8328 74.3675 25.3388C74.2749 25.0912 74.2749 24.9578 74.3675 24.9578C74.4458 24.9578 74.51 25.0581 74.51 25.1806C74.51 25.3032 74.6359 25.4035 74.7901 25.4035C74.9441 25.4035 75.0919 25.4682 75.1188 25.5474C75.1473 25.6318 75.4461 25.5895 75.8399 25.4452C76.3486 25.2588 76.553 25.089 76.6797 24.7477L76.8472 24.2967L77.0697 24.6195C77.2814 24.9269 77.3208 24.9321 77.8891 24.7283C78.2174 24.6105 78.5353 24.5451 78.5955 24.583C78.6557 24.6207 78.6754 24.4944 78.6392 24.3022C78.5748 23.9589 78.9004 23.5685 78.9995 23.8705C79.0273 23.9552 79.1352 24.143 79.2396 24.2879C79.4069 24.5206 79.4963 24.5302 80.0012 24.3702C80.3161 24.2706 80.8523 24.0612 81.1929 23.905C81.5336 23.7487 81.9129 23.6208 82.0359 23.6208C82.159 23.6208 82.52 23.4536 82.8382 23.2494C83.1565 23.0451 83.5121 22.878 83.6286 22.878C83.7449 22.878 83.9271 22.7943 84.0333 22.6923C84.1394 22.5902 84.4471 22.4886 84.7168 22.4668C84.9866 22.4448 85.3464 22.3279 85.5164 22.2068C85.6864 22.0857 85.9424 21.9866 86.0853 21.9866C86.228 21.9866 86.3449 21.8864 86.3449 21.7638C86.3449 21.6389 86.4752 21.541 86.6416 21.541C86.805 21.541 86.9764 21.4407 87.0225 21.3181C87.0689 21.1956 87.2657 21.0953 87.46 21.0953C87.7024 21.0953 87.8568 20.9787 87.9521 20.7239C88.088 20.3605 88.3904 20.2067 88.3904 20.501C88.3904 20.7208 88.6723 20.6814 88.9227 20.4268C89.0432 20.3042 89.2531 20.2039 89.3889 20.2039C89.525 20.2039 89.701 20.0589 89.7804 19.8819C89.8597 19.7046 90.0556 19.4874 90.2158 19.399C90.3759 19.3106 90.6522 19.088 90.8297 18.904C91.0072 18.7203 91.2049 18.567 91.2691 18.5635C91.3332 18.56 91.55 18.3472 91.7509 18.0905C91.9519 17.8338 92.2975 17.4486 92.5192 17.2347C93.0566 16.7155 93.9109 14.9717 93.5016 15.2289C93.2061 15.4147 93.3098 14.7125 93.6868 13.9765C93.9135 13.5337 94.0475 13.1326 93.9844 13.0852C93.9211 13.0376 93.8694 12.5364 93.8692 11.9713C93.869 11.2824 93.8088 10.9232 93.6866 10.8817C93.5862 10.8477 93.5043 10.7324 93.5043 10.6255C93.5043 10.5184 93.4118 10.3948 93.2988 10.3508C93.1859 10.3067 93.0494 10.0663 92.9954 9.81658C92.9415 9.56686 92.8367 9.32441 92.7625 9.27776C92.6882 9.23126 92.6253 9.04661 92.6223 8.86759C92.6194 8.68858 92.4716 8.3723 92.2936 8.16476C91.8507 7.64793 90.8743 6.93158 90.8743 7.12322C90.8743 7.20909 90.7757 7.27936 90.6551 7.27936C90.5346 7.27936 90.436 7.2232 90.436 7.15472C90.436 7.08608 90.2716 6.95372 90.0707 6.86072C89.8698 6.76757 89.7038 6.57311 89.7018 6.42827C89.6981 6.15938 88.8678 5.64522 88.437 5.64522C88.3086 5.64522 88.1099 5.52815 87.9955 5.38524C87.8526 5.20652 87.7648 5.18038 87.7147 5.30175C87.6651 5.42119 87.5462 5.38108 87.3459 5.17741C87.1405 4.96853 86.9423 4.90421 86.6974 4.9666C86.4998 5.01711 86.3449 4.99096 86.3449 4.90718C86.3449 4.66473 85.297 4.06545 84.6646 3.94615C84.3432 3.88554 84.0128 3.77932 83.9304 3.71024C83.6278 3.45621 82.1016 3.01826 81.0348 2.87951C80.7008 2.83613 80.2138 2.74402 79.9526 2.67494C79.631 2.58997 79.4777 2.60185 79.4777 2.71193C79.4777 2.80122 79.3297 2.7354 79.149 2.56545C78.9427 2.37158 78.5482 2.22927 78.0897 2.18306C77.6879 2.14251 77.0304 2.03451 76.6286 1.94285C76.2268 1.85133 75.5173 1.75031 75.0518 1.71823C74.5863 1.68629 74.126 1.59581 74.029 1.51723C73.932 1.43864 73.3922 1.36822 72.8297 1.36065C71.8218 1.34713 71.5822 1.31667 71.1495 1.14776C70.7561 0.994301 69.3961 0.931609 69.3961 1.06695C69.3961 1.13959 69.2747 1.13291 69.1263 1.05209C68.9407 0.95107 68.804 0.958647 68.6879 1.0766C68.5607 1.206 68.5195 1.19723 68.5195 1.04124C68.5195 0.890755 68.4695 0.904126 68.3355 1.09027C68.128 1.37877 67.54 1.35129 67.3534 1.04451C67.2735 0.913039 67.0819 0.879168 66.7738 0.94186C66.4606 1.00544 66.3446 0.983902 66.4113 0.874266C66.4726 0.773246 66.3842 0.78112 66.1744 0.895361C65.8972 1.04615 65.811 1.03783 65.674 0.847377C65.5255 0.640881 65.4913 0.642812 65.3423 0.865649C65.1883 1.09606 65.1755 1.09517 65.1676 0.85421C65.1627 0.711297 65.1424 0.588142 65.1224 0.580714C65.1024 0.573435 64.4325 0.537781 63.634 0.501681C62.8354 0.465433 62.1016 0.367979 62.0033 0.285083C61.8808 0.181687 61.792 0.187481 61.7217 0.303208C61.6546 0.413438 61.434 0.43483 61.0876 0.364562C60.1829 0.180944 59.6068 0.195948 59.6068 0.403187C59.6068 0.508218 59.541 0.594233 59.4607 0.594233C59.3803 0.594233 59.3311 0.519063 59.3511 0.427105C59.3712 0.335148 59.2232 0.241853 59.0223 0.219718C58.8214 0.197583 58.5092 0.131325 58.3283 0.0723478C58.0795 -0.00861646 57.9996 0.0237692 57.9996 0.205456C57.9996 0.337673 58.0763 0.445675 58.1701 0.445675C58.2637 0.445675 58.2913 0.495739 58.2311 0.556796C58.1709 0.618002 58.039 0.553083 57.9381 0.412546C57.6884 0.0652171 57.0075 0.0408536 56.4121 0.357877C56.0249 0.563927 55.8852 0.580714 55.7546 0.436464C55.6294 0.298454 55.6335 0.27929 55.7714 0.358323C55.8835 0.422648 55.954 0.373773 55.954 0.231602C55.954 0.104288 55.87 0 55.7674 0C55.5402 0 54.9254 0.404673 54.6756 0.718576C54.5167 0.918239 54.4929 0.904423 54.4929 0.612654C54.4929 0.344655 54.434 0.296077 54.2007 0.371396C53.9925 0.438544 53.9085 0.398136 53.9085 0.230562C53.9085 0.0583834 53.7811 0.00282255 53.4336 0.0233236C53.1724 0.0389222 52.8524 0.104437 52.7222 0.169059C52.5922 0.233682 52.4459 0.246161 52.3973 0.196691C52.3486 0.147073 51.7056 0.0875007 50.9685 0.0641771C49.9549 0.032237 49.5448 0.0773987 49.286 0.249875C48.9988 0.441218 48.9313 0.444635 48.8658 0.271267C48.7838 0.0542238 48.2469 0.0161927 47.9447 0.20605C47.847 0.267405 47.7983 0.369019 47.8364 0.43171C47.8746 0.494402 47.816 0.676237 47.7063 0.835492C47.5359 1.08269 47.0498 1.17391 46.603 1.04258C46.4795 1.00633 47.252 0.694361 47.388 0.725707C47.4582 0.741752 47.4745 0.646526 47.4246 0.513863C47.3745 0.381349 47.3335 0.210953 47.3335 0.135485C47.3335 0.0557095 46.8585 0.0346141 46.2012 0.0851239C44.8656 0.187629 44.8894 0.187926 44.3748 0.0629887C44.0674 -0.0117361 43.973 0.0197582 43.973 0.196691C43.973 0.401702 43.9273 0.403782 43.5712 0.214964C43.0211 -0.0768046 41.9278 -0.0579378 41.4943 0.250766C41.2446 0.428591 41.1253 0.450132 41.0843 0.325045C40.9994 0.0661084 40.2415 0.109933 40.0156 0.386697C39.8388 0.603295 39.8004 0.59869 39.5909 0.335593C39.3951 0.0897293 39.3321 0.077399 39.1702 0.253589ZM41.0508 0.668512C41.0508 0.791073 40.9851 0.899669 40.9047 0.90992C40.8243 0.92017 40.6905 0.936809 40.6072 0.947059C40.5238 0.95731 40.3933 1.06591 40.3172 1.18847C40.1207 1.50445 40.1278 1.10824 40.3254 0.732987C40.5035 0.394571 41.0508 0.345992 41.0508 0.668512ZM33.307 0.956864C33.307 0.992964 33.2412 1.06368 33.1609 1.11419C33.0805 1.1647 33.0148 1.13513 33.0148 1.04867C33.0148 0.962212 33.0805 0.89135 33.1609 0.89135C33.2412 0.89135 33.307 0.920764 33.307 0.956864ZM29.0032 1.77215C28.8596 2.00851 28.6281 1.81598 28.7302 1.54515C28.7865 1.39615 28.8661 1.36763 28.9596 1.46271C29.0384 1.54278 29.058 1.68198 29.0032 1.77215ZM64.7206 1.55986C64.7206 1.68242 64.624 1.7827 64.506 1.7827C64.3754 1.7827 64.3244 1.69564 64.3755 1.55986C64.4218 1.4373 64.5184 1.33702 64.5901 1.33702C64.6619 1.33702 64.7206 1.4373 64.7206 1.55986ZM66.2443 1.44844C66.1716 1.5098 66.0629 1.62671 66.003 1.70842C65.9408 1.79325 65.893 1.74541 65.8917 1.597C65.8905 1.45245 65.9976 1.33702 66.1331 1.33702C66.2669 1.33702 66.317 1.38709 66.2443 1.44844ZM28.3393 1.7827C28.3393 1.86441 28.2735 1.93126 28.1931 1.93126C28.1128 1.93126 28.047 1.86441 28.047 1.7827C28.047 1.70099 28.1128 1.63414 28.1931 1.63414C28.2735 1.63414 28.3393 1.70099 28.3393 1.7827ZM32.9752 1.72387C32.9267 1.77319 32.8006 1.77854 32.6952 1.73561C32.5786 1.68822 32.6133 1.65301 32.7835 1.64588C32.9375 1.63949 33.0237 1.67455 32.9752 1.72387ZM68.5195 1.94255C68.5195 2.01282 68.4209 2.03198 68.3003 1.98504C68.1798 1.93794 68.0811 1.84183 68.0811 1.77141C68.0811 1.70114 68.1798 1.68198 68.3003 1.72892C68.4209 1.77601 68.5195 1.87213 68.5195 1.94255ZM71.5878 1.7827C71.5878 1.86441 71.4726 1.93022 71.3321 1.92903C71.1135 1.9271 71.1082 1.90571 71.2956 1.7827C71.5713 1.60146 71.5878 1.60146 71.5878 1.7827ZM25.6362 2.07982C25.6859 2.16152 25.6568 2.22837 25.5718 2.22837C25.4868 2.22837 25.4171 2.16152 25.4171 2.07982C25.4171 1.99811 25.446 1.93126 25.4815 1.93126C25.517 1.93126 25.5865 1.99811 25.6362 2.07982ZM63.844 2.07982C63.844 2.16152 63.7743 2.22837 63.6892 2.22837C63.6042 2.22837 63.5751 2.16152 63.6248 2.07982C63.6745 1.99811 63.744 1.93126 63.7795 1.93126C63.815 1.93126 63.844 1.99811 63.844 2.07982ZM67.4901 2.44304C67.6229 2.60586 67.6288 2.67405 67.51 2.67405C67.4172 2.67405 67.3036 2.57377 67.2574 2.45121C67.2111 2.32865 67.0816 2.22837 66.9697 2.22837C66.8578 2.22837 66.7662 2.15915 66.7662 2.07462C66.7662 1.88223 67.2214 2.11384 67.4901 2.44304ZM65.5577 2.16955C65.5092 2.21887 65.3831 2.22421 65.2777 2.18128C65.1611 2.13389 65.1958 2.09868 65.366 2.09155C65.52 2.08516 65.6062 2.12022 65.5577 2.16955ZM22.7384 2.62458C22.548 2.818 22.6449 3.11972 22.8967 3.1175C23.0989 3.11571 23.1103 3.08808 22.951 2.98543C22.8403 2.91412 22.7948 2.78146 22.8501 2.69069C22.9605 2.509 22.892 2.46844 22.7384 2.62458ZM70.9637 3.06089C70.9152 3.11022 70.7891 3.11556 70.6838 3.07263C70.5672 3.02524 70.6018 2.99003 70.772 2.9829C70.926 2.97651 71.0123 3.01157 70.9637 3.06089ZM71.4417 3.26828C71.4417 3.34999 71.3759 3.41684 71.2956 3.41684C71.2152 3.41684 71.1495 3.34999 71.1495 3.26828C71.1495 3.18658 71.2152 3.11972 71.2956 3.11972C71.3759 3.11972 71.4417 3.18658 71.4417 3.26828ZM73.0489 3.34256C73.0489 3.46512 72.9831 3.5654 72.9028 3.5654C72.8224 3.5654 72.7567 3.46512 72.7567 3.34256C72.7567 3.22 72.8224 3.11972 72.9028 3.11972C72.9831 3.11972 73.0489 3.22 73.0489 3.34256ZM77.14 3.64844C77.14 3.77576 77.0742 3.83875 76.9939 3.78824C76.9135 3.73773 76.8477 3.63359 76.8477 3.55663C76.8477 3.47968 76.9135 3.41684 76.9939 3.41684C77.0742 3.41684 77.14 3.52113 77.14 3.64844ZM82.546 4.9767C82.546 5.09926 82.4474 5.19954 82.3269 5.19954C82.2063 5.19954 82.1077 5.09926 82.1077 4.9767C82.1077 4.85414 82.2063 4.75387 82.3269 4.75387C82.4474 4.75387 82.546 4.85414 82.546 4.9767ZM87.6105 6.27659C87.57 6.3788 87.5368 6.29516 87.5368 6.09089C87.5368 5.88662 87.57 5.80313 87.6105 5.90519C87.6511 6.0074 87.6511 6.17453 87.6105 6.27659ZM18.7691 8.02215C18.7194 8.10386 18.7485 8.17071 18.8335 8.17071C18.9185 8.17071 18.9882 8.10386 18.9882 8.02215C18.9882 7.94044 18.9593 7.87359 18.9238 7.87359C18.8883 7.87359 18.8187 7.94044 18.7691 8.02215ZM16.8197 8.61638C16.8197 8.82065 16.8528 8.90429 16.8933 8.80208C16.9339 8.70002 16.9339 8.53289 16.8933 8.43068C16.8528 8.32862 16.8197 8.41211 16.8197 8.61638ZM13.7554 8.79673C13.5278 9.02818 13.5334 9.2534 13.7648 9.16813C13.8653 9.13113 14.0583 9.19888 14.1939 9.31876C14.3295 9.4388 14.5103 9.49288 14.5957 9.43925C14.8039 9.30837 14.7936 9.06206 14.5799 9.06206C14.4859 9.06206 14.3007 8.96267 14.1688 8.8413C13.9837 8.6709 13.8891 8.6608 13.7554 8.79673ZM11.7903 9.44801C11.7422 9.49689 11.7381 9.63014 11.7812 9.74438C11.844 9.91092 11.7301 9.93394 11.206 9.86085C10.7899 9.80292 10.5158 9.83025 10.4515 9.93588C10.3959 10.0272 10.4202 10.102 10.5052 10.102C10.5903 10.102 10.66 10.2608 10.66 10.4548C10.66 10.7321 10.7381 10.8076 11.0252 10.8076C11.2825 10.8076 11.3905 10.7268 11.3905 10.5343C11.3905 10.2334 11.7974 9.95549 12.0847 10.0602C12.2068 10.1048 12.2349 10.0408 12.1694 9.86724C12.1025 9.69016 12.1257 9.64173 12.2423 9.71497C12.3364 9.77409 12.4133 9.75879 12.4133 9.68095C12.4133 9.6031 12.3093 9.49897 12.1821 9.44935C11.8985 9.33867 11.8977 9.33867 11.7903 9.44801ZM12.7055 9.76637C12.7055 10.0403 12.9755 10.1311 13.2522 9.95028C13.4594 9.8148 13.4631 9.79668 13.2712 9.85625C13.1403 9.89695 12.9596 9.85521 12.8694 9.76355C12.7483 9.64039 12.7055 9.64114 12.7055 9.76637ZM9.56414 10.2505C9.51446 10.3322 9.54354 10.3991 9.62857 10.3991C9.71361 10.3991 9.7833 10.4939 9.7833 10.6096C9.7833 10.9146 10.1208 10.9834 10.3134 10.7176C10.4377 10.546 10.4313 10.4425 10.2872 10.2961C10.0606 10.0656 9.69067 10.0422 9.56414 10.2505ZM8.5779 10.65C8.43719 10.6874 8.3222 10.8387 8.3222 10.986C8.3222 11.1334 8.21131 11.3458 8.07572 11.458C7.86108 11.6354 7.84092 11.6297 7.9204 11.4142C7.97461 11.2667 7.92668 11.1334 7.80161 11.0845C7.68619 11.0395 7.59165 11.0674 7.59165 11.1465C7.59165 11.2257 7.49303 11.2904 7.37249 11.2904C7.25195 11.2904 7.15333 11.3552 7.15333 11.4344C7.15333 11.5134 7.06142 11.5424 6.94892 11.4984C6.62251 11.3711 6.5816 11.6361 6.87981 11.9478C7.12103 12.2001 7.15333 12.2045 7.15333 11.9849C7.15333 11.8481 7.25195 11.7361 7.37249 11.7361C7.49303 11.7361 7.59165 11.841 7.59165 11.9693C7.59165 12.3595 8.22227 12.1625 8.33813 11.7361C8.40169 11.5024 8.44464 11.4611 8.4537 11.6247C8.47007 11.915 8.69084 11.9711 8.84148 11.7232C8.89539 11.6343 9.06254 11.5944 9.21289 11.6343C9.43615 11.6936 9.46069 11.6589 9.3476 11.4439C9.27148 11.2993 9.24913 11.1404 9.29793 11.0908C9.39509 10.9918 9.07292 10.5371 8.92535 10.5649C8.87479 10.5744 8.7186 10.6127 8.5779 10.65ZM9.49108 11.1419C9.30377 11.2649 9.30903 11.2863 9.52761 11.2882C9.66831 11.2894 9.7833 11.2236 9.7833 11.1419C9.7833 10.9606 9.76679 10.9606 9.49108 11.1419ZM5.66359 12.2518C4.91142 12.7451 4.83252 12.8717 5.21737 12.9678C5.35793 13.0029 5.25945 13.0045 4.9982 12.9714C4.50669 12.909 4.34422 13.1201 4.75902 13.2819C4.90864 13.3402 4.96708 13.4818 4.91887 13.6691C4.87708 13.8315 4.9025 13.9645 4.97541 13.9645C5.04817 13.9645 5.10779 13.8308 5.10779 13.6674C5.10779 13.3435 5.21547 13.3031 5.53311 13.5075C5.77244 13.6616 6.27667 13.3962 6.27667 13.1164C6.27667 13.0097 6.38303 12.9687 6.53236 13.0176C6.73852 13.085 6.74743 13.0719 6.57824 12.95C6.40714 12.8265 6.40276 12.7567 6.55442 12.5709C6.70535 12.386 6.7036 12.292 6.54507 12.0724C6.35936 11.8151 6.31582 11.8239 5.66359 12.2518ZM2.69697 15.4501C2.74738 15.533 2.63809 15.5976 2.4499 15.5964C2.17843 15.5945 2.15534 15.5659 2.3317 15.4501C2.60361 15.2715 2.58841 15.2715 2.69697 15.4501ZM88.0251 19.3126C88.0748 19.3943 88.0091 19.4611 87.879 19.4611C87.749 19.4611 87.6833 19.3943 87.7329 19.3126C87.7826 19.2309 87.8484 19.164 87.879 19.164C87.9097 19.164 87.9755 19.2309 88.0251 19.3126ZM85.5186 20.8788C85.471 21.005 85.4007 21.0763 85.3624 21.0373C85.3242 20.9984 85.3361 20.8952 85.3892 20.8081C85.5332 20.571 85.6174 20.6171 85.5186 20.8788ZM85.0803 21.7702C85.0327 21.8963 84.9624 21.9676 84.9241 21.9287C84.8858 21.8898 84.8978 21.7865 84.9508 21.6995C85.0949 21.4624 85.1791 21.5084 85.0803 21.7702ZM81.6694 22.2837C81.6694 22.3654 81.5997 22.4323 81.5146 22.4323C81.4296 22.4323 81.4005 22.3654 81.4502 22.2837C81.4999 22.202 81.5694 22.1352 81.6049 22.1352C81.6404 22.1352 81.6694 22.202 81.6694 22.2837ZM82.1807 22.2837C82.2304 22.3654 82.1685 22.4323 82.0433 22.4323C81.9181 22.4323 81.8155 22.3654 81.8155 22.2837C81.8155 22.202 81.8773 22.1352 81.953 22.1352C82.0286 22.1352 82.1311 22.202 82.1807 22.2837ZM72.4644 25.2549C72.4644 25.3366 72.3987 25.4035 72.3183 25.4035C72.238 25.4035 72.1722 25.3366 72.1722 25.2549C72.1722 25.1732 72.238 25.1063 72.3183 25.1063C72.3987 25.1063 72.4644 25.1732 72.4644 25.2549ZM15.9687 26.6066C16.0356 26.6576 15.9864 26.7397 15.8591 26.7894C15.6924 26.8544 15.6277 26.7909 15.6277 26.5625C15.6277 26.3881 15.6771 26.3058 15.7373 26.3798C15.7975 26.4536 15.9017 26.5558 15.9687 26.6066ZM18.5103 26.8302C18.4618 26.8795 18.3357 26.8849 18.2304 26.842C18.1138 26.7946 18.1484 26.7594 18.3186 26.7522C18.4726 26.7458 18.5588 26.7809 18.5103 26.8302ZM54.3468 27.409C54.3468 27.5371 54.215 27.6318 54.0368 27.6318C53.7776 27.6318 53.7565 27.5951 53.9085 27.409C54.0086 27.2864 54.1481 27.1862 54.2185 27.1862C54.2891 27.1862 54.3468 27.2864 54.3468 27.409ZM38.3478 27.4833C38.3975 27.565 38.3317 27.6318 38.2017 27.6318C38.0716 27.6318 38.0059 27.565 38.0556 27.4833C38.1052 27.4016 38.171 27.3347 38.2017 27.3347C38.2324 27.3347 38.2981 27.4016 38.3478 27.4833ZM32.5764 27.5394C32.5764 27.5702 32.4778 27.6786 32.3573 27.7804C32.1777 27.9319 32.1381 27.9217 32.1381 27.7242C32.1381 27.5917 32.2367 27.4833 32.3573 27.4833C32.4778 27.4833 32.5764 27.5085 32.5764 27.5394ZM42.2197 27.5488C42.2197 27.5849 42.1539 27.6556 42.0736 27.7061C41.9932 27.7566 41.9275 27.7271 41.9275 27.6406C41.9275 27.5541 41.9932 27.4833 42.0736 27.4833C42.1539 27.4833 42.2197 27.5127 42.2197 27.5488ZM35.7299 27.929C35.8439 27.929 35.937 28.0627 35.937 28.2261C35.937 28.3895 35.8994 28.5232 35.8535 28.5232C35.6857 28.5232 35.4247 28.1441 35.3933 27.8547C35.3756 27.6913 35.3975 27.6412 35.442 27.7433C35.4865 27.8455 35.6161 27.929 35.7299 27.929ZM29.6542 28.2261C29.6542 28.4176 29.7282 28.5229 29.8369 28.4861C29.9374 28.452 30.0195 28.335 30.0195 28.2261C30.0195 28.1172 29.9374 28.0001 29.8369 27.9661C29.7282 27.9293 29.6542 28.0346 29.6542 28.2261ZM38.959 28.254C38.9124 28.3724 38.8777 28.3372 38.8707 28.1641C38.8644 28.0075 38.8989 27.9199 38.9474 27.9692C38.9959 28.0185 39.0012 28.1467 38.959 28.254ZM39.3706 28.6717C39.4202 28.7535 39.3583 28.8203 39.2331 28.8203C39.1078 28.8203 39.0053 28.7535 39.0053 28.6717C39.0053 28.59 39.0671 28.5232 39.1428 28.5232C39.2185 28.5232 39.3209 28.59 39.3706 28.6717Z" fill="#FDFEFF"/>
</g>
</svg>
