<svg width="24" height="24" viewBox="0 0 24 24" fill="none" xmlns="http://www.w3.org/2000/svg">
<g id="Web">
<g id="&#60;Group&#62;">
<g id="&#60;Group&#62;_2">
<path id="&#60;Compound Path&#62;" d="M6.98438 18.4219H17.0156C17.1151 18.4219 17.2105 18.3824 17.2808 18.312C17.3511 18.2417 17.3906 18.1463 17.3906 18.0469V16.4062C17.3906 16.3068 17.3511 16.2114 17.2808 16.1411C17.2105 16.0708 17.1151 16.0312 17.0156 16.0312H17.0035C16.9244 15.0316 16.5478 14.0786 15.9222 13.295C15.2966 12.5113 14.4508 11.9328 13.4936 11.6341L13.4755 11.5016C13.4324 11.1852 13.2761 10.8951 13.0355 10.6851C12.795 10.4751 12.4864 10.3594 12.1671 10.3594H11.88C11.5607 10.3594 11.2522 10.4751 11.0117 10.6851C10.7711 10.8951 10.6148 11.1852 10.5717 11.5016L10.5536 11.6361C9.59694 11.935 8.75153 12.5133 8.12609 13.2965C7.50066 14.0797 7.12379 15.0321 7.04395 16.0312H6.98438C6.88492 16.0312 6.78954 16.0708 6.71921 16.1411C6.64888 16.2114 6.60938 16.3068 6.60938 16.4062V18.0469C6.60938 18.1463 6.64888 18.2417 6.71921 18.312C6.78954 18.3824 6.88492 18.4219 6.98438 18.4219ZM16.6406 17.6719H7.35938V16.7812H16.6406V17.6719ZM11.3487 14.7963C11.3487 14.6628 11.3883 14.5323 11.4625 14.4213C11.5366 14.3103 11.6421 14.2238 11.7654 14.1727C11.8887 14.1216 12.0245 14.1083 12.1554 14.1343C12.2863 14.1603 12.4066 14.2246 12.501 14.319C12.5954 14.4134 12.6597 14.5337 12.6857 14.6646C12.7118 14.7956 12.6984 14.9313 12.6473 15.0546C12.5962 15.178 12.5097 15.2834 12.3987 15.3576C12.2877 15.4317 12.1572 15.4713 12.0237 15.4713C11.8448 15.4712 11.6732 15.4 11.5466 15.2734C11.4201 15.1469 11.3489 14.9753 11.3487 14.7963ZM15.3565 13.7889C15.8662 14.4336 16.1771 15.2128 16.2512 16.0312H12.733C12.9196 15.9239 13.0795 15.7758 13.2007 15.5979C13.322 15.4201 13.4014 15.2171 13.4332 15.0042C13.6467 14.8976 13.8282 14.7365 13.9595 14.5371C14.0907 14.3378 14.1669 14.1073 14.1803 13.869L14.2402 12.7924C14.668 13.0565 15.0459 13.3938 15.3567 13.7889H15.3565ZM10.984 12.2922C11.0568 12.2739 11.1225 12.2341 11.1725 12.1781C11.2225 12.1221 11.2545 12.0523 11.2644 11.9778L11.3151 11.6003C11.3338 11.4639 11.4014 11.339 11.5053 11.2487C11.6092 11.1584 11.7424 11.1089 11.88 11.1094H12.1671C12.3048 11.1089 12.4379 11.1584 12.5418 11.2487C12.6457 11.339 12.7133 11.4639 12.732 11.6003L12.7826 11.98C12.7925 12.0543 12.8246 12.124 12.8746 12.1798C12.9246 12.2357 12.9903 12.2753 13.0631 12.2933C13.2143 12.3314 13.3632 12.3781 13.5091 12.4332L13.4316 13.8267C13.4244 13.9511 13.3792 14.0702 13.302 14.1679C13.1863 13.9323 13.0077 13.7332 12.7859 13.5927C12.5642 13.4522 12.308 13.3757 12.0455 13.3717C11.783 13.3676 11.5245 13.4362 11.2986 13.5699C11.0726 13.7035 10.888 13.897 10.7652 14.129C10.7046 14.0391 10.6693 13.9346 10.6629 13.8264L10.581 12.4169C10.7131 12.3684 10.8477 12.3268 10.9841 12.2922H10.984ZM8.69062 13.7906C9.01172 13.3816 9.40456 13.0344 9.84994 12.766L9.91411 13.8699C9.92831 14.0979 9.9995 14.3187 10.1212 14.5121C10.2428 14.7055 10.4111 14.8653 10.6105 14.9768C10.6386 15.1949 10.7168 15.4035 10.8389 15.5865C10.961 15.7694 11.1236 15.9216 11.3143 16.0312H7.79634C7.8712 15.2135 8.18187 14.4352 8.69062 13.7906Z" fill="url(#paint0_linear_332_3887)"/>
</g>
<g id="&#60;Group&#62;_3">
<path id="&#60;Compound Path&#62;_2" d="M23.0625 7.79062V4.57228C23.0625 3.51277 22.2328 2.67188 21.2132 2.67188H2.78663C1.76719 2.67188 0.9375 3.51277 0.9375 4.57228V19.4277C0.9375 20.4872 1.76719 21.3281 2.78663 21.3281H21.2132C22.2328 21.3281 23.0625 20.4872 23.0625 19.4277V7.7977C23.0625 7.79648 23.0625 7.79531 23.0625 7.79405C23.0625 7.79278 23.0625 7.79166 23.0625 7.79062ZM2.78663 3.42188H21.2132C21.8193 3.42188 22.3125 3.92639 22.3125 4.57228V7.40625H1.6875V4.57228C1.6875 3.92639 2.18058 3.42188 2.78663 3.42188ZM21.2132 20.5781H2.78663C2.18058 20.5781 1.6875 20.0736 1.6875 19.4277V8.15625H22.3125V19.4277C22.3125 20.0736 21.8193 20.5781 21.2132 20.5781Z" fill="url(#paint1_linear_332_3887)"/>
<path id="&#60;Compound Path&#62;_3" d="M6.71777 6.75139C7.46645 6.75139 8.07555 6.12069 8.07555 5.34542C8.07555 4.57016 7.46645 3.93945 6.71777 3.93945C5.96908 3.93945 5.35998 4.5702 5.35998 5.34542C5.35998 6.12064 5.96908 6.75139 6.71777 6.75139ZM6.71777 4.68945C7.05292 4.68945 7.32555 4.98369 7.32555 5.34542C7.32555 5.70716 7.05292 6.00139 6.71777 6.00139C6.38261 6.00139 6.10998 5.70716 6.10998 5.34542C6.10998 4.98369 6.38261 4.68945 6.71777 4.68945ZM9.91173 6.75139C10.6604 6.75139 11.2695 6.12069 11.2695 5.34542C11.2695 4.57016 10.6604 3.93945 9.91173 3.93945C9.16305 3.93945 8.55395 4.5702 8.55395 5.34542C8.55395 6.12064 9.16309 6.75139 9.91173 6.75139ZM9.91173 4.68945C10.2469 4.68945 10.5195 4.98369 10.5195 5.34542C10.5195 5.70716 10.2469 6.00139 9.91173 6.00139C9.57658 6.00139 9.30395 5.70716 9.30395 5.34542C9.30395 4.98369 9.57667 4.68945 9.91173 4.68945ZM3.5238 6.75139C4.27248 6.75139 4.88158 6.12069 4.88158 5.34542C4.88158 4.57016 4.27248 3.93945 3.5238 3.93945C2.77511 3.93945 2.16602 4.5702 2.16602 5.34542C2.16602 6.12064 2.77511 6.75139 3.5238 6.75139ZM3.5238 4.68945C3.85891 4.68945 4.13158 4.98369 4.13158 5.34542C4.13158 5.70716 3.85891 6.00139 3.5238 6.00139C3.18869 6.00139 2.91602 5.70716 2.91602 5.34542C2.91602 4.98369 3.18864 4.68945 3.5238 4.68945Z" fill="url(#paint2_linear_332_3887)"/>
</g>
</g>
</g>
<defs>
<linearGradient id="paint0_linear_332_3887" x1="5.29532" y1="10.3594" x2="19.16" y2="14.3971" gradientUnits="userSpaceOnUse">
<stop offset="0.0520833" stop-color="#F736C7"/>
<stop offset="0.28125" stop-color="#C539C4"/>
<stop offset="0.510417" stop-color="#903ABB"/>
<stop offset="0.75" stop-color="#5938AD"/>
<stop offset="1" stop-color="#003399"/>
</linearGradient>
<linearGradient id="paint1_linear_332_3887" x1="-1.75918" y1="2.67188" x2="27.1765" y2="10.1452" gradientUnits="userSpaceOnUse">
<stop offset="0.0520833" stop-color="#F736C7"/>
<stop offset="0.28125" stop-color="#C539C4"/>
<stop offset="0.510417" stop-color="#903ABB"/>
<stop offset="0.75" stop-color="#5938AD"/>
<stop offset="1" stop-color="#003399"/>
</linearGradient>
<linearGradient id="paint2_linear_332_3887" x1="1.05645" y1="3.93945" x2="9.53947" y2="9.92048" gradientUnits="userSpaceOnUse">
<stop offset="0.0520833" stop-color="#F736C7"/>
<stop offset="0.28125" stop-color="#C539C4"/>
<stop offset="0.510417" stop-color="#903ABB"/>
<stop offset="0.75" stop-color="#5938AD"/>
<stop offset="1" stop-color="#003399"/>
</linearGradient>
</defs>
</svg>
